<?xml version="1.0" encoding="utf-8"?>
<!-- Generator: Adobe Illustrator 26.5.0, SVG Export Plug-In . SVG Version: 6.00 Build 0)  -->
<svg version="1.1" id="Layer_1" xmlns="http://www.w3.org/2000/svg" xmlns:xlink="http://www.w3.org/1999/xlink" x="0px" y="0px"
	 viewBox="0 0 1881 684" style="enable-background:new 0 0 1881 684;" xml:space="preserve">
<style type="text/css">
	.st0{fill:#0BA3D9;}
	.st1{fill:#1C2551;}
	.st2{fill:#FFFFFF;}
</style>
<path class="st0" d="M342,162c99.41,0,180,80.59,180,180c0,99.41-80.59,180-180,180H162V162H342z"/>
<path class="st1" d="M405,243H243v198h162V243z"/>
<path class="st2" d="M243,243v81l81-81H243z"/>
<path class="st1" d="M773.96,243.11v198.15h-36.58l-2.54-17.87c-13.05,16.74-28.9,20.43-46.48,20.43
	c-41.11,0-69.16-28.93-69.16-72.56c0-45.36,28.62-72.87,69.73-72.87c16.45,0,32.02,5.11,43.94,19.86v-75.12h41.09V243.11z
	 M660.27,371.24c0,20.1,12.47,35.98,34.3,35.98c18.42,0,37.7-9.35,37.7-35.98c0-23.55-19-36-37.7-36
	C673.6,335.24,660.27,350.28,660.27,371.24z"/>
<path class="st1" d="M842.1,384.58c1.99,13.6,15.01,24.66,37.97,24.66c11.06,0,26.36-2.54,36.29-11.06l22.95,25.52
	c-15.02,14.73-39.12,20.68-60.11,20.68c-50.73,0-78.51-29.74-78.51-74.55c0-42.53,28.62-72.29,74.26-72.29
	c47.61,0,78.79,29.77,70.02,87.04H842.1z M908.42,354.79c-0.84-15.3-16.43-22.38-33.44-22.38c-16.45,0-28.9,8.49-32.88,22.38H908.42
	z"/>
<path class="st1" d="M986.17,441.25V338.09h-24.66v-34.3h24.66v-8.25c0-40.54,29.48-56.41,56.68-56.41
	c15.59,0,26.65,4.27,38.83,11.92l-13.89,28.64c-6.52-3.98-13.89-5.68-20.12-5.68c-12.19,0-20.7,6.81-20.7,21.54v8.25h38.83v34.3
	h-38.83v103.16H986.17z"/>
<path class="st1" d="M1131.1,264.09c0,30.63-46.48,30.63-46.48,0C1084.62,233.49,1131.1,233.49,1131.1,264.09z M1087.45,300.94
	v140.32h40.83V300.94H1087.45z"/>
<path class="st1" d="M1261.93,441.25v-73.97c0-21.56-9.35-32.62-28.93-32.62c-18.98-0.29-31.76,16.17-31.76,34.3v72.29H1161V301.22
	h36.85l1.41,17.87c12.47-16.17,28.35-21.56,45.36-21.25c31.47,0,58.4,14.73,58.4,69.15v74.28h-41.09V441.25z"/>
<path class="st1" d="M1369.16,384.58c1.99,13.6,15.01,24.66,37.97,24.66c11.06,0,26.36-2.54,36.29-11.06l22.95,25.52
	c-15.02,14.73-39.12,20.68-60.11,20.68c-50.73,0-78.51-29.74-78.51-74.55c0-42.53,28.62-72.29,74.26-72.29
	c47.61,0,78.79,29.77,70.02,87.04H1369.16z M1435.48,354.79c-0.84-15.3-16.43-22.38-33.44-22.38c-16.45,0-28.9,8.49-32.88,22.38
	H1435.48z"/>
<path class="st1" d="M1540.46,243.11v198.15h-40.53V243.11H1540.46z"/>
<path class="st1" d="M1719.36,301.22l-85.89,202.95h-44.5l28.9-67.16l-58.67-135.78h45.91l34.88,88.17l34.3-88.17H1719.36z"/>
<path class="st0" d="M324,324v-81l-81,81H324z"/>
</svg>
